<?xml version="1.0" encoding="utf-8"?>
<!-- Generator: Adobe Illustrator 23.1.1, SVG Export Plug-In . SVG Version: 6.00 Build 0)  -->
<svg version="1.1" id="图层_1" xmlns="http://www.w3.org/2000/svg" xmlns:xlink="http://www.w3.org/1999/xlink" x="0px" y="0px"
	 viewBox="0 0 129.6 17" style="enable-background:new 0 0 129.6 17;" xml:space="preserve">
<style type="text/css">
	.st0{fill-rule:evenodd;clip-rule:evenodd;fill:#0068EA;}
	.st1{fill-rule:evenodd;clip-rule:evenodd;fill:#191E28;}
</style>
<title>编组</title>
<desc>Created with Sketch.</desc>
<g id="页面布局参考">
	<g transform="translate(-167.000000, -24.000000)">
		<g id="编组-4" transform="translate(24.000000, 19.000000)">
			<g id="编组" transform="translate(143.555556, 5.000000)">
				<polygon id="Fill-1" class="st0" points="12.6,0 17.3,16 22,16 17.3,0 				"/>
				<polygon id="Fill-2" class="st0" points="4.5,0 -0.6,16 4.4,16 7,7.9 9.5,16 14.5,16 9.5,0 				"/>
				<g transform="translate(27.294118, 4.705882)">
					<path id="Fill-3" class="st1" d="M12,0.4C10.6,0.4,9.3,1,8.4,2C7.5,1,6.2,0.4,4.7,0.4c-2.7,0-4.9,2.2-4.9,5v6.4h2.6V5.4
						C2.3,4,3.4,3,4.7,3S7.1,4,7.1,5.4v6.4h2.6V5.4C9.6,4,10.7,3,12,3s2.4,1.1,2.4,2.4v6.4h2.6V5.4C16.9,2.6,14.7,0.4,12,0.4"/>
					<path id="Fill-5" class="st1" d="M44.6,0.4c-1.4,0-2.7,0.6-3.7,1.6c-0.9-1-2.2-1.6-3.6-1.6c-2.7,0-4.9,2.2-4.9,5v6.4h2.6V5.4
						C34.9,4,36,3,37.3,3c1.3,0,2.4,1.1,2.4,2.4v6.4h2.6V5.4C42.2,4,43.3,3,44.6,3C45.9,3,47,4,47,5.4v6.4h2.6V5.4
						C49.5,2.6,47.3,0.4,44.6,0.4"/>
					<path id="Fill-7" class="st1" d="M24.6,9.9c-2,0-3.6-1.6-3.6-3.6s1.6-3.6,3.6-3.6s3.6,1.6,3.6,3.6S26.6,9.9,24.6,9.9 M24.6,0.3
						c-3.3,0-5.9,2.7-5.9,6s2.6,6,5.9,6c3.3,0,5.9-2.7,5.9-6S27.9,0.3,24.6,0.3"/>
					<path id="Fill-9" class="st1" d="M70.9,0.3c-3.3,0-6,2.7-6,6.1v5.3h2.6V6.4c0-1.9,1.6-3.5,3.5-3.5c1.9,0,3.5,1.6,3.5,3.5v5.3
						H77V6.4C77,3,74.3,0.3,70.9,0.3"/>
					<polygon id="Fill-11" class="st1" points="77.8,3 82.1,3 82.1,11.7 84.7,11.7 84.7,3 89,3 89,0.4 77.8,0.4 					"/>
					<path id="Fill-13" class="st1" d="M95.8,9.9c-2,0-3.6-1.6-3.6-3.6s1.6-3.6,3.6-3.6c2,0,3.6,1.6,3.6,3.6S97.8,9.9,95.8,9.9
						L95.8,9.9z M101.7,6c-0.1-3.2-2.7-5.7-5.9-5.7c-3.3,0-5.9,2.7-5.9,6c0,3.3,2.6,6,5.9,6c1.4,0,2.6-0.5,3.6-1.2v0.8h2.3L101.7,6
						L101.7,6z"/>
					<path id="Fill-15" class="st1" d="M53.7,5.4c0.4-1.6,1.8-2.7,3.5-2.7c1.7,0,3.1,1.2,3.5,2.7H53.7z M57.2,0.3
						c-3.3,0-5.9,2.7-5.9,6c0,3.3,2.6,6,5.9,6c1.6,0,3.1-0.6,4.2-1.8c0.3-0.3,0.6-0.7,0.8-1.1V8.9h-2.6c-0.7,0.6-1.5,0.9-2.4,0.9
						c-1.6,0-2.9-1-3.4-2.5l0,0h0h6.8H63c0.1-0.4,0.1-0.8,0.1-1.1C63.1,3,60.5,0.3,57.2,0.3L57.2,0.3z"/>
				</g>
			</g>
		</g>
	</g>
</g>
</svg>
